<svg width="816" height="280" viewBox="0 0 816 280" fill="none" xmlns="http://www.w3.org/2000/svg">
<path d="M313.206 64.0598H289.998V87.2685H313.206V64.0598Z" fill="black"/>
<path d="M313.206 105.455H289.998V216.993H313.206V105.455Z" fill="black"/>
<path d="M414.161 109.374C421.083 113.622 426.481 119.418 430.353 126.763C434.225 134.108 436.149 142.345 436.149 151.427V217.016H412.94V154.313C412.94 145.396 410.523 138.215 405.689 132.771C400.855 127.35 394.284 124.628 385.954 124.628C377.623 124.628 370.935 127.373 365.42 132.888C359.929 138.379 357.16 145.536 357.16 154.313V217.016H333.951V105.455H356.479V118.62C360.938 113.575 366.077 109.703 371.874 107.027C377.67 104.352 383.912 103.015 390.623 103.015C399.4 103.015 407.238 105.127 414.161 109.374Z" fill="black"/>
<path d="M478.952 211.994C469.871 207.019 462.643 200.097 457.199 191.25C451.778 182.403 449.056 172.382 449.056 161.236C449.056 150.089 451.778 140.069 457.199 131.222C462.619 122.375 469.894 115.452 478.952 110.477C488.034 105.502 497.82 103.015 508.403 103.015C518.987 103.015 528.772 105.502 537.854 110.477C546.936 115.452 554.163 122.375 559.608 131.222C565.029 140.069 567.751 150.089 567.751 161.236C567.751 172.382 565.029 182.403 559.608 191.25C554.187 200.097 546.912 207.019 537.854 211.994C528.772 216.969 518.963 219.457 508.403 219.457C497.843 219.457 488.034 216.969 478.952 211.994ZM526.473 193.033C531.964 189.842 536.305 185.454 539.426 179.868C542.547 174.283 544.096 168.088 544.096 161.236C544.096 154.383 542.547 148.188 539.426 142.603C536.305 137.018 531.987 132.63 526.473 129.438C520.981 126.247 514.95 124.651 508.403 124.651C501.856 124.651 495.614 126.27 490.099 129.438C484.608 132.63 480.267 137.018 477.145 142.603C474.024 148.188 472.476 154.383 472.476 161.236C472.476 168.088 474.024 174.283 477.145 179.868C480.267 185.454 484.584 189.842 490.099 193.033C495.59 196.225 501.692 197.821 508.403 197.821C515.115 197.821 520.981 196.225 526.473 193.033Z" fill="black"/>
<path d="M728.592 109.046C734.998 113.058 739.926 118.69 743.423 125.895C746.919 133.123 748.656 141.266 748.656 150.324V217.016H725.447V152.764C725.447 144.434 723.288 137.675 718.97 132.465C714.653 127.256 708.927 124.675 701.793 124.675C694.659 124.675 688.769 127.35 683.723 132.7C678.678 138.051 676.144 144.739 676.144 152.764V217.016H652.935V152.764C652.935 144.434 650.823 137.675 646.575 132.465C642.328 127.256 636.579 124.675 629.28 124.675C621.982 124.675 616.303 127.303 611.328 132.583C606.353 137.863 603.866 144.598 603.866 152.764V217.016H580.657V105.455H602.739V119.066C606.611 113.716 611.281 109.703 616.796 107.027C622.287 104.352 628.177 103.015 634.42 103.015C641.859 103.015 648.734 104.986 655.047 108.928C661.36 112.871 666.241 118.033 669.667 124.44C673.82 117.588 679.077 112.307 685.413 108.6C691.726 104.869 698.836 103.015 706.721 103.015C714.606 103.015 722.185 105.009 728.568 109.046H728.592Z" fill="black"/>
<path d="M134.667 139.812C134.667 135.704 135.133 131.712 135.996 127.859H67V151.742H135.996C135.133 147.888 134.667 143.896 134.667 139.789V139.812Z" fill="black"/>
<path d="M134.755 67.2029L117.799 84.1587L143.303 109.662C147.657 102.852 153.448 97.0609 160.258 92.7062L134.755 67.2029Z" fill="black"/>
<path d="M134.755 212.398L117.799 195.291L143.303 169.56C147.657 176.431 153.448 182.273 160.258 186.667L134.755 212.398Z" fill="black"/>
<path d="M269.265 127.882H202.202V151.908H244.72C243.298 158.362 240.733 164.398 237.26 169.807C232.878 176.631 227.051 182.435 220.197 186.799C214.766 190.258 208.706 192.812 202.225 194.228C198.333 195.087 194.3 195.551 190.151 195.551C189.964 195.551 189.801 195.551 189.615 195.551C185.652 195.505 181.806 195.063 178.076 194.251V218.695C181.829 219.276 185.699 219.554 189.615 219.601C189.801 219.601 189.964 219.601 190.151 219.601C194.253 219.601 198.286 219.299 202.225 218.695C215.302 216.722 227.33 211.569 237.54 204.071C244.044 199.288 249.801 193.555 254.603 187.078C262.132 176.91 267.284 164.932 269.288 151.908C269.894 147.985 270.197 143.969 270.197 139.884C270.197 135.798 269.894 131.782 269.288 127.859L269.265 127.882Z" fill="black"/>
<path d="M254.655 92.6125C252.253 89.3536 249.617 86.3042 246.771 83.441C245.348 82.021 243.855 80.6476 242.339 79.3208C240.823 77.9939 239.237 76.7602 237.604 75.5497C236.321 74.6186 235.015 73.7108 233.685 72.8495C232.356 71.9882 231.003 71.1502 229.603 70.382C221.299 65.6798 212.062 62.3976 202.242 60.9078C198.3 60.3026 194.264 60 190.159 60C189.972 60 189.809 60 189.623 60C187.663 60 185.727 60.0931 183.791 60.2561C181.878 60.3957 179.966 60.6285 178.076 60.9078V85.4196C181.808 84.6049 185.657 84.1393 189.623 84.116C189.809 84.116 189.972 84.116 190.159 84.116C192.235 84.116 194.288 84.2324 196.294 84.4652C198.3 84.698 200.282 85.0239 202.242 85.4429C208.726 86.8629 214.791 89.4234 220.226 92.8919C223.655 95.08 226.827 97.6406 229.697 100.481L233.849 105.113H262.236C260.09 100.713 257.548 96.5232 254.679 92.6125H254.655Z" fill="black"/>
</svg>
